# xmcd
#
# Track frame offsets:
#	150
#	19292
#	35950
#	53936
#	72715
#	91355
#	108375
#	123499
#	141383
#	157648
#	174479
#	187806
#	201590
#	221706
#	238374
#	254334
#	269635
#	282726
#	295742
#	310659
#	327757
#
# Disc length: 4595 seconds
#
# Revision: 1
# Processed by: cddbd v1.5.2PL0 Copyright (c) Steve Scherf et al.
# Submitted via: audiograbber 1.83.01
#
DISCID=5611f115
DTITLE=Various Artist - ERG NCT 148
DYEAR=2006
DGENRE=Country
TTITLE0=Keith Urban - Once In A Lifetime
TTITLE1=Trace Adkins - Ladies Love Country Boys
TTITLE2=Keith Anderson - Podunk
TTITLE3=Rascal Flatts - My Wish
TTITLE4=Pat Green - Dixie Lullaby
TTITLE5=Kellie Pickler - Red High Heels
TTITLE6=Carrie Underwood - Before He Cheats
TTITLE7=Jake Owen - Startin' With Me
TTITLE8=Sugarland - Want To
TTITLE9=Tim McGraw - My Little Girl [Radio Remix]
TTITLE10=Aaron Lines - Seeing THings
TTITLE11=Toby Keith - Crash Here Tonight
TTITLE12=Sara Evans - You'll Always Be My Baby
TTITLE13=Lee Ann Womack - Finding My Way Back Home
TTITLE14=Trent Willmon - So Am I
TTITLE15=George Canyon - Drinkin' Thinkin'
TTITLE16=Johnny Reid - Gypsy In My Soul
TTITLE17=Vince Gill - Reason Why, THe
TTITLE18=Jo Dee Messina - It's Too Late To Worry
TTITLE19=Michelle Wright - I've Forgotten You
TTITLE20=Craig Morgan - Little Bit Of Life
EXTD=
EXTT0=
EXTT1=
EXTT2=
EXTT3=
EXTT4=
EXTT5=
EXTT6=
EXTT7=
EXTT8=
EXTT9=
EXTT10=
EXTT11=
EXTT12=
EXTT13=
EXTT14=
EXTT15=
EXTT16=
EXTT17=
EXTT18=
EXTT19=
EXTT20=
PLAYORDER=
